<svg version="1.1" viewBox="0.0 0.0 380 280" fill="none" stroke="none" stroke-linecap="square" stroke-miterlimit="10" xmlns:xlink="http://www.w3.org/1999/xlink" xmlns="http://www.w3.org/2000/svg"><clipPath id="p.0"><path d="m0 0l960.0 0l0 720.0l-960.0 0l0 -720.0z" clip-rule="nonzero"/></clipPath><g clip-path="url(#p.0)"><path fill="#000000" fill-opacity="0.0" d="m0 0l960.0 0l0 720.0l-960.0 0z" fill-rule="evenodd"/><defs><radialGradient id="p.1" gradientUnits="userSpaceOnUse" gradientTransform="matrix(6.984686700358532 0.0 0.0 6.984686700358532 0.0 0.0)" spreadMethod="pad" cx="13.021361606516614" cy="16.006519652290827" fx="13.021361606516614" fy="16.006519652290827" r="6.984686851501465"><stop offset="0.0" stop-color="#dfeafb"/><stop offset="1.0" stop-color="#6e9ce7"/></radialGradient></defs><path fill="url(#p.1)" d="m54.682415 79.1706l72.53543 0l0 65.25985l-72.53543 0z" fill-rule="evenodd"/><path fill="#000000" d="m101.836845 116.83365l4.546875 1.140625q-1.421875 5.609375 -5.140625 8.5625q-3.71875 2.9375 -9.078125 2.9375q-5.5624924 0 -9.046867 -2.265625q-3.46875 -2.265625 -5.296875 -6.546875q-1.8125 -4.296875 -1.8125 -9.21875q0 -5.375 2.046875 -9.359375q2.0625 -4.0 5.84375 -6.078125q3.7812424 -2.078125 8.328117 -2.078125q5.15625 0 8.671875 2.625q3.515625 2.625 4.90625 7.390625l-4.484375 1.046875q-1.1875 -3.75 -3.46875 -5.453125q-2.265625 -1.71875 -5.71875 -1.71875q-3.953125 0 -6.6249924 1.90625q-2.65625 1.890625 -3.734375 5.09375q-1.078125 3.203125 -1.078125 6.59375q0 4.390625 1.28125 7.65625q1.28125 3.265625 3.96875 4.890625q2.7031174 1.609375 5.8437424 1.609375q3.8125 0 6.453125 -2.203125q2.65625 -2.203125 3.59375 -6.53125z" fill-rule="nonzero"/><defs><radialGradient id="p.2" gradientUnits="userSpaceOnUse" gradientTransform="matrix(6.984686700358532 0.0 0.0 6.984686700358532 0.0 0.0)" spreadMethod="pad" cx="40.00239544899322" cy="10.057998521298154" fx="40.00239544899322" fy="10.057998521298154" r="6.984686851501465"><stop offset="0.0" stop-color="#dfeafb"/><stop offset="1.0" stop-color="#6e9ce7"/></radialGradient></defs><path fill="url(#p.2)" d="m243.13649 37.622047l72.535416 0l0 65.25984l-72.535416 0z" fill-rule="evenodd"/><path fill="#000000" d="m265.72842 87.33196l0 -34.35937l4.671875 0l18.046875 26.968746l0 -26.968746l4.359375 0l0 34.35937l-4.671875 0l-18.046875 -26.999996l0 26.999996l-4.359375 0z" fill-rule="nonzero"/><defs><radialGradient id="p.3" gradientUnits="userSpaceOnUse" gradientTransform="matrix(6.984686700358532 0.0 0.0 6.984686700358532 0.0 0.0)" spreadMethod="pad" cx="43.56023487212895" cy="24.5343616325023" fx="43.56023487212895" fy="24.5343616325023" r="6.984686851501465"><stop offset="0.0" stop-color="#dfeafb"/><stop offset="1.0" stop-color="#6e9ce7"/></radialGradient></defs><path fill="url(#p.3)" d="m267.98688 138.73491l72.53543 0l0 65.25984l-72.53543 0z" fill-rule="evenodd"/><path fill="#000000" d="m290.57883 188.44482l0 -34.359375l4.671875 0l18.046844 26.96875l0 -26.96875l4.359375 0l0 34.359375l-4.671875 0l-18.046844 -27.0l0 27.0l-4.359375 0z" fill-rule="nonzero"/><defs><radialGradient id="p.4" gradientUnits="userSpaceOnUse" gradientTransform="matrix(6.984686700358532 0.0 0.0 6.984686700358532 0.0 0.0)" spreadMethod="pad" cx="27.624360954053326" cy="20.67815671486195" fx="27.624360954053326" fy="20.67815671486195" r="6.984686851501465"><stop offset="0.0" stop-color="#dfeafb"/><stop offset="1.0" stop-color="#6e9ce7"/></radialGradient></defs><path fill="url(#p.4)" d="m156.6798 111.80052l72.53543 0l0 65.25984l-72.53543 0z" fill-rule="evenodd"/><path fill="#000000" d="m176.60767 144.77606q0 -8.5625 4.59375 -13.390625q4.59375 -4.8437424 11.859375 -4.8437424q4.75 0 8.5625 2.2812424q3.828125 2.265625 5.828125 6.328125q2.015625 4.0625 2.015625 9.21875q0 5.234375 -2.109375 9.359375q-2.109375 4.125 -5.984375 6.25q-3.859375 2.125 -8.34375 2.125q-4.84375 0 -8.671875 -2.34375q-3.8125 -2.359375 -5.78125 -6.40625q-1.96875 -4.0625 -1.96875 -8.578125zm4.6875 0.0625q0 6.21875 3.328125 9.796875q3.34375 3.5625 8.390625 3.5625q5.125 0 8.4375 -3.609375q3.328125 -3.609375 3.328125 -10.234375q0 -4.203125 -1.421875 -7.328125q-1.421875 -3.125 -4.15625 -4.84375q-2.71875 -1.734375 -6.125 -1.734375q-4.828125 0 -8.3125 3.328125q-3.46875 3.3125 -3.46875 11.0625z" fill-rule="nonzero"/><path fill="#000000" fill-opacity="0.0" d="m127.21785 111.80052c7.365448 0 11.049789 8.157486 14.730881 16.314957c3.6811066 8.157486 7.3589783 16.314972 14.717941 16.314972" fill-rule="evenodd"/><path stroke="#3c78d8" stroke-width="3.0" stroke-linejoin="round" stroke-linecap="butt" d="m127.21785 111.80052c7.365448 0 11.049789 8.157486 14.730881 16.314957c0.46014404 1.0196991 0.92022705 2.039383 1.3874664 3.0431366c0.11680603 0.2509308 0.23406982 0.50086975 0.35188293 0.74957275l0.015991211 0.033416748" fill-rule="evenodd"/><path fill="#3c78d8" stroke="#3c78d8" stroke-width="3.0" stroke-linecap="butt" d="m140.26604 135.51007l13.242294 5.877472l-6.366226 -13.014389z" fill-rule="evenodd"/><path fill="#000000" fill-opacity="0.0" d="m229.21523 144.43045c9.692917 0 14.539368 6.7322845 19.385818 13.464569c4.846466 6.7322845 9.692932 13.464554 19.385834 13.464554" fill-rule="evenodd"/><path stroke="#3c78d8" stroke-width="3.0" stroke-linejoin="round" stroke-linecap="butt" d="m229.21523 144.43045c9.692917 0 14.539368 6.7322845 19.385818 13.464569c0.6058197 0.8415222 1.2116241 1.6830597 1.8269043 2.5114594c0.3076172 0.41418457 0.61763 0.8250885 0.93118286 1.2310638c0.15678406 0.20298767 0.31445312 0.40475464 0.47312927 0.605072l0.3717041 0.4624939" fill-rule="evenodd"/><path fill="#3c78d8" stroke="#3c78d8" stroke-width="3.0" stroke-linecap="butt" d="m249.82149 167.04996l14.31987 2.2009583l-9.554901 -10.890671z" fill-rule="evenodd"/><path fill="#000000" fill-opacity="0.0" d="m279.4042 37.622047c0 -12.499966 -47.110245 -30.192844 -94.220474 -24.999931c-47.110245 5.192913 -94.220474 33.271618 -94.220474 66.543236" fill-rule="evenodd"/><path stroke="#3c78d8" stroke-width="3.0" stroke-linejoin="round" stroke-linecap="butt" d="m279.4042 37.622047c0 -12.499968 -47.110245 -30.192844 -94.220474 -24.999931c-23.555115 2.5964575 -47.110245 10.914362 -64.77658 22.742107c-8.833168 5.913868 -16.194145 12.705204 -21.346825 20.097538c-1.2881699 1.8480873 -2.4383163 3.7337341 -3.4389572 5.652626l-0.29953003 0.5866394" fill-rule="evenodd"/><path fill="#3c78d8" stroke="#3c78d8" stroke-width="3.0" stroke-linecap="butt" d="m90.51411 60.50116l1.511116 14.409004l8.104347 -12.00927z" fill-rule="evenodd"/><path fill="#000000" fill-opacity="0.0" d="m229.21523 144.43045c25.102356 0 50.204727 -20.77166 50.204727 -41.543312" fill-rule="evenodd"/><path stroke="#3c78d8" stroke-width="3.0" stroke-linejoin="round" stroke-linecap="butt" d="m229.21523 144.43045c12.551178 0 25.102356 -5.192917 34.51573 -12.982285c2.353363 -1.9473419 4.5105896 -4.0569687 6.422699 -6.2882996c0.9560547 -1.115654 1.8507996 -2.261757 2.678131 -3.4332047c0.20684814 -0.29286194 0.40948486 -0.5873108 0.6077881 -0.88326263c0.09915161 -0.1479721 0.1972351 -0.29632568 0.29421997 -0.44504547l0.23028564 -0.35797882" fill-rule="evenodd"/><path fill="#3c78d8" stroke="#3c78d8" stroke-width="3.0" stroke-linecap="butt" d="m278.68616 121.54231l-0.59552 -14.475784l-8.848663 11.471909z" fill-rule="evenodd"/><path fill="#000000" fill-opacity="0.0" d="m19.700787 212.90814l350.14175 0l0 54.897644l-350.14175 0z" fill-rule="evenodd"/><path fill="#f6b26b" d="m39.80839 247.50813l0 -19.03125l4.046875 0l0 19.03125l-4.046875 0zm24.621555 -9.703125q0 3.21875 -1.2343788 5.375q-1.234375 2.15625 -3.5625 3.25q-2.328125 1.078125 -5.609375 1.078125l-5.390625 0l0 -19.03125l5.984375 0q2.984375 0 5.1875 1.0625q2.203125 1.0625 3.40625 3.140625q1.2187538 2.078125 1.2187538 5.125zm-4.203129 0.109375q0 -2.109375 -0.625 -3.46875q-0.609375 -1.359375 -1.8125 -2.0q-1.203125 -0.65625 -2.96875 -0.65625l-2.140625 0l0 12.390625l1.71875 0q2.953125 0 4.390625 -1.578125q1.4375 -1.578125 1.4375 -4.6875zm19.794376 9.59375l-1.375 -4.53125l-6.9375 0l-1.390625 4.53125l-4.34375 0l6.71875 -19.109375l4.9375 0l6.734375 19.109375l-4.34375 0zm-2.34375 -7.90625l-1.375 -4.4375q-0.140625 -0.4375 -0.359375 -1.125q-0.203125 -0.703125 -0.421875 -1.421875q-0.21875 -0.734375 -0.34375 -1.265625q-0.125 0.53125 -0.359375 1.328125q-0.234375 0.78125 -0.4375 1.484375q-0.203125 0.703125 -0.296875 1.0l-1.375 4.4375l4.96875 0zm20.0475 7.90625l-10.96875 0l0 -19.03125l10.96875 0l0 3.3125l-6.921875 0l0 4.171875l6.4375 0l0 3.3125l-6.4375 0l0 4.90625l6.921875 0l0 3.328125zm15.194687 -5.28125q0 1.6875 -0.828125 2.9375q-0.8125 1.25 -2.390625 1.9375q-1.5625 0.671875 -3.796875 0.671875q-0.984375 0 -1.9375 -0.140625q-0.9375 -0.125 -1.8125 -0.375q-0.859375 -0.25 -1.640625 -0.640625l0 -3.75q1.359375 0.609375 2.8125 1.09375q1.46875 0.46875 2.890625 0.46875q0.984375 0 1.59375 -0.25q0.609375 -0.265625 0.875 -0.71875q0.28125 -0.453125 0.28125 -1.046875q0 -0.71875 -0.484375 -1.21875q-0.484375 -0.5 -1.328125 -0.9375q-0.828125 -0.453125 -1.890625 -0.96875q-0.65625 -0.3125 -1.4375 -0.75q-0.78125 -0.453125 -1.484375 -1.09375q-0.703125 -0.65625 -1.15625 -1.59375q-0.453125 -0.9375 -0.453125 -2.234375q0 -1.703125 0.78125 -2.90625q0.78125 -1.21875 2.234375 -1.859375q1.453125 -0.640625 3.4375 -0.640625q1.484375 0 2.828125 0.34375q1.34375 0.34375 2.8125 0.984375l-1.296875 3.140625q-1.3125 -0.53125 -2.359375 -0.8125q-1.03125 -0.296875 -2.125 -0.296875q-0.75 0 -1.28125 0.234375q-0.53125 0.234375 -0.8125 0.671875q-0.265625 0.4375 -0.265625 1.015625q0 0.671875 0.390625 1.140625q0.40625 0.453125 1.203125 0.890625q0.796875 0.421875 2.0 1.0q1.453125 0.6875 2.484375 1.4375q1.046875 0.75 1.59375 1.765625q0.5625 1.0 0.5625 2.5zm18.465515 -10.65625q-1.171875 0 -2.0625 0.453125q-0.890625 0.4375 -1.5 1.28125q-0.59375 0.84375 -0.90625 2.046875q-0.3125 1.203125 -0.3125 2.6875q0 2.03125 0.5 3.453125q0.5 1.421875 1.546875 2.171875q1.0625 0.75 2.734375 0.75q1.15625 0 2.3125 -0.265625q1.171875 -0.265625 2.53125 -0.734375l0 3.375q-1.265625 0.53125 -2.484375 0.75q-1.21875 0.234375 -2.75 0.234375q-2.9375 0 -4.828125 -1.21875q-1.890625 -1.21875 -2.8125 -3.40625q-0.90625 -2.203125 -0.90625 -5.125q0 -2.171875 0.578125 -3.953125q0.59375 -1.796875 1.71875 -3.109375q1.140625 -1.328125 2.796875 -2.03125q1.671875 -0.71875 3.84375 -0.71875q1.40625 0 2.828125 0.359375q1.4375 0.34375 2.734375 0.96875l-1.296875 3.28125q-1.078125 -0.5 -2.15625 -0.875q-1.078125 -0.375 -2.109375 -0.375zm21.813675 8.640625q0 1.8125 -0.5 3.21875q-0.484375 1.40625 -1.421875 2.375q-0.921875 0.96875 -2.234375 1.46875q-1.296875 0.5 -2.9375 0.5q-1.546875 0 -2.828125 -0.5q-1.28125 -0.5 -2.234375 -1.46875q-0.9375 -0.96875 -1.453125 -2.375q-0.5 -1.40625 -0.5 -3.21875q0 -2.421875 0.859375 -4.09375q0.859375 -1.6875 2.4375 -2.5625q1.59375 -0.875 3.796875 -0.875q2.03125 0 3.609375 0.875q1.59375 0.875 2.5 2.5625q0.90625 1.671875 0.90625 4.09375zm-10.0625 0q0 1.421875 0.3125 2.40625q0.3125 0.96875 0.96875 1.46875q0.671875 0.5 1.734375 0.5q1.046875 0 1.703125 -0.5q0.671875 -0.5 0.96875 -1.46875q0.3125 -0.984375 0.3125 -2.40625q0 -1.453125 -0.3125 -2.40625q-0.296875 -0.953125 -0.96875 -1.4375q-0.65625 -0.484375 -1.734375 -0.484375q-1.5625 0 -2.28125 1.078125q-0.703125 1.078125 -0.703125 3.25zm21.597717 -7.53125q2.328125 0 3.75 1.28125q1.421875 1.265625 1.421875 4.0625l0 9.484375l-3.96875 0l0 -8.5q0 -1.5625 -0.578125 -2.359375q-0.5625 -0.796875 -1.765625 -0.796875q-1.828125 0 -2.5 1.25q-0.65625 1.234375 -0.65625 3.5625l0 6.84375l-3.96875 0l0 -14.546875l3.03125 0l0.546875 1.859375l0.21875 0q0.46875 -0.75 1.15625 -1.21875q0.703125 -0.46875 1.546875 -0.6875q0.859375 -0.234375 1.765625 -0.234375zm17.519196 0q2.328125 0 3.75 1.28125q1.421875 1.265625 1.421875 4.0625l0 9.484375l-3.96875 0l0 -8.5q0 -1.5625 -0.578125 -2.359375q-0.5625 -0.796875 -1.765625 -0.796875q-1.828125 0 -2.5 1.25q-0.65625 1.234375 -0.65625 3.5625l0 6.84375l-3.96875 0l0 -14.546875l3.03125 0l0.546875 1.859375l0.21875 0q0.46875 -0.75 1.15625 -1.21875q0.703125 -0.46875 1.546875 -0.6875q0.859375 -0.234375 1.765625 -0.234375zm15.253571 0q2.015625 0 3.46875 0.78125q1.46875 0.765625 2.265625 2.25q0.796875 1.46875 0.796875 3.578125l0 1.9375l-9.390625 0q0.0625 1.671875 1.0 2.640625q0.953125 0.953125 2.625 0.953125q1.40625 0 2.5625 -0.28125q1.15625 -0.296875 2.375 -0.875l0 3.078125q-1.078125 0.53125 -2.265625 0.78125q-1.171875 0.25 -2.84375 0.25q-2.1875 0 -3.875 -0.8125q-1.6875 -0.8125 -2.640625 -2.453125q-0.953125 -1.65625 -0.953125 -4.171875q0 -2.546875 0.859375 -4.25q0.859375 -1.703125 2.40625 -2.546875q1.5625 -0.859375 3.609375 -0.859375zm0.03125 2.828125q-1.15625 0 -1.921875 0.75q-0.765625 0.734375 -0.875 2.328125l5.5625 0q0 -0.890625 -0.3125 -1.578125q-0.3125 -0.6875 -0.921875 -1.09375q-0.59375 -0.40625 -1.53125 -0.40625zm15.624054 12.265625q-2.15625 0 -3.6875 -0.78125q-1.515625 -0.796875 -2.3125 -2.453125q-0.78125 -1.65625 -0.78125 -4.234375q0 -2.65625 0.890625 -4.34375q0.90625 -1.6875 2.515625 -2.484375q1.609375 -0.796875 3.734375 -0.796875q1.515625 0 2.609375 0.296875q1.09375 0.296875 1.921875 0.703125l-1.171875 3.0625q-0.9375 -0.375 -1.75 -0.609375q-0.796875 -0.25 -1.609375 -0.25q-1.046875 0 -1.734375 0.5q-0.6875 0.484375 -1.03125 1.46875q-0.328125 0.96875 -0.328125 2.4375q0 1.4375 0.359375 2.390625q0.359375 0.953125 1.046875 1.421875q0.703125 0.453125 1.6875 0.453125q1.234375 0 2.1875 -0.328125q0.96875 -0.34375 1.890625 -0.9375l0 3.40625q-0.921875 0.5625 -1.921875 0.8125q-0.984375 0.265625 -2.515625 0.265625zm13.939957 -3.171875q0.640625 0 1.25 -0.125q0.625 -0.125 1.25 -0.328125l0 2.953125q-0.640625 0.296875 -1.59375 0.484375q-0.9375 0.1875 -2.0625 0.1875q-1.296875 0 -2.328125 -0.421875q-1.03125 -0.421875 -1.625 -1.46875q-0.59375 -1.0625 -0.59375 -2.9375l0 -7.015625l-1.90625 0l0 -1.671875l2.1875 -1.328125l1.140625 -3.078125l2.546875 0l0 3.109375l4.078125 0l0 2.96875l-4.078125 0l0 7.015625q0 0.84375 0.46875 1.25q0.484375 0.40625 1.265625 0.40625zm9.399124 -11.640625l0 14.546875l-3.96875 0l0 -14.546875l3.96875 0zm-1.96875 -5.703125q0.875 0 1.515625 0.40625q0.640625 0.40625 0.640625 1.53125q0 1.109375 -0.640625 1.53125q-0.640625 0.421875 -1.515625 0.421875q-0.90625 0 -1.546875 -0.421875q-0.625 -0.421875 -0.625 -1.53125q0 -1.125 0.625 -1.53125q0.640625 -0.40625 1.546875 -0.40625zm9.603592 20.25l-5.546875 -14.546875l4.15625 0l2.8125 8.28125q0.234375 0.734375 0.359375 1.546875q0.140625 0.796875 0.1875 1.4375l0.109375 0q0.046875 -0.6875 0.1875 -1.46875q0.15625 -0.78125 0.40625 -1.515625l2.796875 -8.28125l4.140625 0l-5.53125 14.546875l-4.078125 0zm15.663345 -14.546875l0 14.546875l-3.96875 0l0 -14.546875l3.96875 0zm-1.96875 -5.703125q0.875 0 1.515625 0.40625q0.640625 0.40625 0.640625 1.53125q0 1.109375 -0.640625 1.53125q-0.640625 0.421875 -1.515625 0.421875q-0.90625 0 -1.546875 -0.421875q-0.625 -0.421875 -0.625 -1.53125q0 -1.125 0.625 -1.53125q0.640625 -0.40625 1.546875 -0.40625zm12.275452 17.34375q0.640625 0 1.25 -0.125q0.625 -0.125 1.25 -0.328125l0 2.953125q-0.640625 0.296875 -1.59375 0.484375q-0.9375 0.1875 -2.0625 0.1875q-1.296875 0 -2.328125 -0.421875q-1.03125 -0.421875 -1.625 -1.46875q-0.59375 -1.0625 -0.59375 -2.9375l0 -7.015625l-1.90625 0l0 -1.671875l2.1875 -1.328125l1.140625 -3.078125l2.546875 0l0 3.109375l4.078125 0l0 2.96875l-4.078125 0l0 7.015625q0 0.84375 0.46875 1.25q0.484375 0.40625 1.265625 0.40625zm3.3522644 -11.640625l4.34375 0l2.75 8.1875q0.125 0.390625 0.21875 0.796875q0.09375 0.390625 0.15625 0.828125q0.0625 0.421875 0.109375 0.890625l0.078125 0q0.078125 -0.703125 0.203125 -1.3125q0.140625 -0.609375 0.359375 -1.203125l2.6875 -8.1875l4.25 0l-6.15625 16.40625q-0.546875 1.515625 -1.453125 2.515625q-0.890625 1.015625 -2.0625 1.515625q-1.15625 0.515625 -2.5625 0.515625q-0.671875 0 -1.171875 -0.078125q-0.484375 -0.0625 -0.84375 -0.140625l0 -3.15625q0.28125 0.0625 0.6875 0.109375q0.421875 0.0625 0.875 0.0625q0.84375 0 1.4375 -0.359375q0.59375 -0.34375 1.0 -0.9375q0.40625 -0.59375 0.640625 -1.296875l0.234375 -0.71875l-5.78125 -14.4375zm31.822083 14.546875l-4.03125 0l0 -15.671875l-5.171875 0l0 -3.359375l14.375 0l0 3.359375l-5.171875 0l0 15.671875zm21.014801 -7.296875q0 1.8125 -0.5 3.21875q-0.484375 1.40625 -1.421875 2.375q-0.921875 0.96875 -2.234375 1.46875q-1.296875 0.5 -2.9375 0.5q-1.546875 0 -2.828125 -0.5q-1.28125 -0.5 -2.234375 -1.46875q-0.9375 -0.96875 -1.453125 -2.375q-0.5 -1.40625 -0.5 -3.21875q0 -2.421875 0.859375 -4.09375q0.859375 -1.6875 2.4375 -2.5625q1.59375 -0.875 3.796875 -0.875q2.03125 0 3.609375 0.875q1.59375 0.875 2.5 2.5625q0.90625 1.671875 0.90625 4.09375zm-10.0625 0q0 1.421875 0.3125 2.40625q0.3125 0.96875 0.96875 1.46875q0.671875 0.5 1.734375 0.5q1.046875 0 1.703125 -0.5q0.671875 -0.5 0.96875 -1.46875q0.3125 -0.984375 0.3125 -2.40625q0 -1.453125 -0.3125 -2.40625q-0.296875 -0.953125 -0.96875 -1.4375q-0.65625 -0.484375 -1.734375 -0.484375q-1.5625 0 -2.28125 1.078125q-0.703125 1.078125 -0.703125 3.25zm26.566467 0q0 1.8125 -0.5 3.21875q-0.484375 1.40625 -1.421875 2.375q-0.921875 0.96875 -2.234375 1.46875q-1.296875 0.5 -2.9375 0.5q-1.546875 0 -2.828125 -0.5q-1.28125 -0.5 -2.234375 -1.46875q-0.9375 -0.96875 -1.453125 -2.375q-0.5 -1.40625 -0.5 -3.21875q0 -2.421875 0.859375 -4.09375q0.859375 -1.6875 2.4375 -2.5625q1.59375 -0.875 3.796875 -0.875q2.03125 0 3.609375 0.875q1.59375 0.875 2.5 2.5625q0.90625 1.671875 0.90625 4.09375zm-10.0625 0q0 1.421875 0.3125 2.40625q0.3125 0.96875 0.96875 1.46875q0.671875 0.5 1.734375 0.5q1.046875 0 1.703125 -0.5q0.671875 -0.5 0.96875 -1.46875q0.3125 -0.984375 0.3125 -2.40625q0 -1.453125 -0.3125 -2.40625q-0.296875 -0.953125 -0.96875 -1.4375q-0.65625 -0.484375 -1.734375 -0.484375q-1.5625 0 -2.28125 1.078125q-0.703125 1.078125 -0.703125 3.25zm17.300842 7.296875l-3.96875 0l0 -20.25l3.96875 0l0 20.25z" fill-rule="nonzero"/><path fill="#000000" fill-opacity="0.0" d="m18.461943 111.296585l36.220474 0.50393677" fill-rule="evenodd"/><path stroke="#3c78d8" stroke-width="3.0" stroke-linejoin="round" stroke-linecap="butt" d="m18.461943 111.296585l18.222216 0.2535324" fill-rule="evenodd"/><path fill="#3c78d8" stroke="#3c78d8" stroke-width="3.0" stroke-linecap="butt" d="m36.615223 116.50483l13.681908 -4.76532l-13.544037 -5.1441116z" fill-rule="evenodd"/><path fill="#000000" fill-opacity="0.0" d="m340.5223 171.36482l28.094482 0" fill-rule="evenodd"/><path stroke="#3c78d8" stroke-width="3.0" stroke-linejoin="round" stroke-linecap="butt" d="m340.5223 171.36482l10.094482 0" fill-rule="evenodd"/><path fill="#3c78d8" stroke="#3c78d8" stroke-width="3.0" stroke-linecap="butt" d="m350.6168 176.32002l13.614288 -4.9552l-13.614288 -4.955185z" fill-rule="evenodd"/></g></svg>
