<?xml version="1.0" encoding="UTF-8" standalone="no"?>
<svg
   version="1.1"
   viewBox="0.0 0.0 381.0 268.0"
   fill="none"
   stroke="none"
   stroke-linecap="square"
   stroke-miterlimit="10"
   id="svg35"
   sodipodi:docname="idaes-conn_logo.svg"
   inkscape:version="1.4 (e7c3feb100, 2024-10-09)"
   xmlns:inkscape="http://www.inkscape.org/namespaces/inkscape"
   xmlns:sodipodi="http://sodipodi.sourceforge.net/DTD/sodipodi-0.dtd"
   xmlns="http://www.w3.org/2000/svg"
   xmlns:svg="http://www.w3.org/2000/svg">
  <defs
     id="defs35" />
  <sodipodi:namedview
     id="namedview35"
     pagecolor="#ffffff"
     bordercolor="#000000"
     borderopacity="0.25"
     inkscape:showpageshadow="2"
     inkscape:pageopacity="0.0"
     inkscape:pagecheckerboard="0"
     inkscape:deskcolor="#d1d1d1"
     showgrid="false"
     inkscape:zoom="0.40416667"
     inkscape:cx="478.76289"
     inkscape:cy="358.76289"
     inkscape:window-width="1920"
     inkscape:window-height="1129"
     inkscape:window-x="0"
     inkscape:window-y="34"
     inkscape:window-maximized="1"
     inkscape:current-layer="svg35" />
  <clipPath
     id="p.0">
    <path
       d="m0 0l960.0 0l0 720.0l-960.0 0l0 -720.0z"
       clip-rule="nonzero"
       id="path1" />
  </clipPath>
  <g
     clip-path="url(#p.0)"
     id="g35">
    <path
       fill="#efefef"
       d="m0 0l380.7244 0l0 266.04724l-380.7244 0z"
       fill-rule="evenodd"
       id="path3" />
    <path
       fill="#ffffff"
       d="m54.682415 79.1706l72.53543 0l0 65.25985l-72.53543 0z"
       fill-rule="evenodd"
       id="path4" />
    <path
       stroke="#999999"
       stroke-width="2.0"
       stroke-linejoin="round"
       stroke-linecap="butt"
       d="m54.682415 79.1706l72.53543 0l0 65.25985l-72.53543 0z"
       fill-rule="evenodd"
       id="path5" />
    <path
       fill="#000000"
       d="m101.836845 116.83365l4.546875 1.140625q-1.421875 5.609375 -5.140625 8.5625q-3.71875 2.9375 -9.078125 2.9375q-5.5624924 0 -9.046867 -2.265625q-3.46875 -2.265625 -5.296875 -6.546875q-1.8125 -4.296875 -1.8125 -9.21875q0 -5.375 2.046875 -9.359375q2.0625 -4.0 5.84375 -6.078125q3.7812424 -2.078125 8.328117 -2.078125q5.15625 0 8.671875 2.625q3.515625 2.625 4.90625 7.390625l-4.484375 1.046875q-1.1875 -3.75 -3.46875 -5.453125q-2.265625 -1.71875 -5.71875 -1.71875q-3.953125 0 -6.6249924 1.90625q-2.65625 1.890625 -3.734375 5.09375q-1.078125 3.203125 -1.078125 6.59375q0 4.390625 1.28125 7.65625q1.28125 3.265625 3.96875 4.890625q2.7031174 1.609375 5.8437424 1.609375q3.8125 0 6.453125 -2.203125q2.65625 -2.203125 3.59375 -6.53125z"
       fill-rule="nonzero"
       id="path6" />
    <path
       fill="#ffffff"
       d="m243.13649 37.622047l72.535416 0l0 65.25984l-72.535416 0z"
       fill-rule="evenodd"
       id="path7" />
    <path
       stroke="#999999"
       stroke-width="2.0"
       stroke-linejoin="round"
       stroke-linecap="butt"
       d="m243.13649 37.622047l72.535416 0l0 65.25984l-72.535416 0z"
       fill-rule="evenodd"
       id="path8" />
    <path
       fill="#000000"
       d="m265.72842 87.33196l0 -34.35937l4.671875 0l18.046875 26.968746l0 -26.968746l4.359375 0l0 34.35937l-4.671875 0l-18.046875 -26.999996l0 26.999996l-4.359375 0z"
       fill-rule="nonzero"
       id="path9" />
    <path
       fill="#ffffff"
       d="m267.98688 138.73491l72.53543 0l0 65.25984l-72.53543 0z"
       fill-rule="evenodd"
       id="path10" />
    <path
       stroke="#999999"
       stroke-width="2.0"
       stroke-linejoin="round"
       stroke-linecap="butt"
       d="m267.98688 138.73491l72.53543 0l0 65.25984l-72.53543 0z"
       fill-rule="evenodd"
       id="path11" />
    <path
       fill="#000000"
       d="m290.57883 188.44482l0 -34.359375l4.671875 0l18.046844 26.96875l0 -26.96875l4.359375 0l0 34.359375l-4.671875 0l-18.046844 -27.0l0 27.0l-4.359375 0z"
       fill-rule="nonzero"
       id="path12" />
    <path
       fill="#ffffff"
       d="m156.6798 111.80052l72.53543 0l0 65.25984l-72.53543 0z"
       fill-rule="evenodd"
       id="path13" />
    <path
       stroke="#999999"
       stroke-width="2.0"
       stroke-linejoin="round"
       stroke-linecap="butt"
       d="m156.6798 111.80052l72.53543 0l0 65.25984l-72.53543 0z"
       fill-rule="evenodd"
       id="path14" />
    <path
       fill="#000000"
       d="m176.60767 144.77606q0 -8.5625 4.59375 -13.390625q4.59375 -4.8437424 11.859375 -4.8437424q4.75 0 8.5625 2.2812424q3.828125 2.265625 5.828125 6.328125q2.015625 4.0625 2.015625 9.21875q0 5.234375 -2.109375 9.359375q-2.109375 4.125 -5.984375 6.25q-3.859375 2.125 -8.34375 2.125q-4.84375 0 -8.671875 -2.34375q-3.8125 -2.359375 -5.78125 -6.40625q-1.96875 -4.0625 -1.96875 -8.578125zm4.6875 0.0625q0 6.21875 3.328125 9.796875q3.34375 3.5625 8.390625 3.5625q5.125 0 8.4375 -3.609375q3.328125 -3.609375 3.328125 -10.234375q0 -4.203125 -1.421875 -7.328125q-1.421875 -3.125 -4.15625 -4.84375q-2.71875 -1.734375 -6.125 -1.734375q-4.828125 0 -8.3125 3.328125q-3.46875 3.3125 -3.46875 11.0625z"
       fill-rule="nonzero"
       id="path15" />
    <path
       fill="#000000"
       fill-opacity="0.0"
       d="m127.21785 111.80052c7.365448 0 11.049789 8.157486 14.730881 16.314957c3.6811066 8.157486 7.3589783 16.314972 14.717941 16.314972"
       fill-rule="evenodd"
       id="path16" />
    <path
       stroke="#3c78d8"
       stroke-width="3.0"
       stroke-linejoin="round"
       stroke-linecap="butt"
       d="m127.21785 111.80052c7.365448 0 11.049789 8.157486 14.730881 16.314957c0.46014404 1.0196991 0.92022705 2.039383 1.3874664 3.0431366c0.11680603 0.2509308 0.23406982 0.50086975 0.35188293 0.74957275l0.015991211 0.033416748"
       fill-rule="evenodd"
       id="path17" />
    <path
       fill="#3c78d8"
       stroke="#3c78d8"
       stroke-width="3.0"
       stroke-linecap="butt"
       d="m140.26604 135.51007l13.242294 5.877472l-6.366226 -13.014389z"
       fill-rule="evenodd"
       id="path18" />
    <path
       fill="#000000"
       fill-opacity="0.0"
       d="m229.21523 144.43045c9.692917 0 14.539368 6.7322845 19.385818 13.464569c4.846466 6.7322845 9.692932 13.464554 19.385834 13.464554"
       fill-rule="evenodd"
       id="path19" />
    <path
       stroke="#3c78d8"
       stroke-width="3.0"
       stroke-linejoin="round"
       stroke-linecap="butt"
       d="m229.21523 144.43045c9.692917 0 14.539368 6.7322845 19.385818 13.464569c0.6058197 0.8415222 1.2116241 1.6830597 1.8269043 2.5114594c0.3076172 0.41418457 0.61763 0.8250885 0.93118286 1.2310638c0.15678406 0.20298767 0.31445312 0.40475464 0.47312927 0.605072l0.3717041 0.4624939"
       fill-rule="evenodd"
       id="path20" />
    <path
       fill="#3c78d8"
       stroke="#3c78d8"
       stroke-width="3.0"
       stroke-linecap="butt"
       d="m249.82149 167.04996l14.31987 2.2009583l-9.554901 -10.890671z"
       fill-rule="evenodd"
       id="path21" />
    <path
       fill="#000000"
       fill-opacity="0.0"
       d="m279.4042 37.622047c0 -12.499966 -47.110245 -30.192844 -94.220474 -24.999931c-47.110245 5.192913 -94.220474 33.271618 -94.220474 66.543236"
       fill-rule="evenodd"
       id="path22" />
    <path
       stroke="#3c78d8"
       stroke-width="3.0"
       stroke-linejoin="round"
       stroke-linecap="butt"
       d="m279.4042 37.622047c0 -12.499968 -47.110245 -30.192844 -94.220474 -24.999931c-23.555115 2.5964575 -47.110245 10.914362 -64.77658 22.742107c-8.833168 5.913868 -16.194145 12.705204 -21.346825 20.097538c-1.2881699 1.8480873 -2.4383163 3.7337341 -3.4389572 5.652626l-0.29953003 0.5866394"
       fill-rule="evenodd"
       id="path23" />
    <path
       fill="#3c78d8"
       stroke="#3c78d8"
       stroke-width="3.0"
       stroke-linecap="butt"
       d="m90.51411 60.50116l1.511116 14.409004l8.104347 -12.00927z"
       fill-rule="evenodd"
       id="path24" />
    <path
       fill="#000000"
       fill-opacity="0.0"
       d="m229.21523 144.43045c25.102356 0 50.204727 -20.77166 50.204727 -41.543312"
       fill-rule="evenodd"
       id="path25" />
    <path
       stroke="#3c78d8"
       stroke-width="3.0"
       stroke-linejoin="round"
       stroke-linecap="butt"
       d="m229.21523 144.43045c12.551178 0 25.102356 -5.192917 34.51573 -12.982285c2.353363 -1.9473419 4.5105896 -4.0569687 6.422699 -6.2882996c0.9560547 -1.115654 1.8507996 -2.261757 2.678131 -3.4332047c0.20684814 -0.29286194 0.40948486 -0.5873108 0.6077881 -0.88326263c0.09915161 -0.1479721 0.1972351 -0.29632568 0.29421997 -0.44504547l0.23028564 -0.35797882"
       fill-rule="evenodd"
       id="path26" />
    <path
       fill="#3c78d8"
       stroke="#3c78d8"
       stroke-width="3.0"
       stroke-linecap="butt"
       d="m278.68616 121.54231l-0.59552 -14.475784l-8.848663 11.471909z"
       fill-rule="evenodd"
       id="path27" />
    <path
       fill="#000000"
       fill-opacity="0.0"
       d="m19.700787 212.90814l350.14175 0l0 54.897644l-350.14175 0z"
       fill-rule="evenodd"
       id="path28" />
    <path
       fill="#434343"
       d="m48.158062 247.50813l0 -19.03125l2.671875 0l0 19.03125l-2.671875 0zm23.077686 -9.703125q0 3.21875 -1.1875 5.375q-1.171875 2.15625 -3.421875 3.25q-2.25 1.078125 -5.453129 1.078125l-5.21875 0l0 -19.03125l5.8125 0q2.9062538 0 5.031254 1.0625q2.125 1.0625 3.28125 3.140625q1.15625 2.078125 1.15625 5.125zm-2.796875 0.078125q0 -2.4375 -0.796875 -4.015625q-0.796875 -1.59375 -2.328125 -2.375q-1.5312538 -0.78125 -3.7656288 -0.78125l-2.921875 0l0 14.53125l2.453125 0q3.6875038 0 5.515629 -1.84375q1.84375 -1.859375 1.84375 -5.515625zm18.836151 9.625l-2.109375 -5.65625l-7.453125 0l-2.09375 5.65625l-2.765625 0l7.265625 -19.109375l2.734375 0l7.21875 19.109375l-2.796875 0zm-2.84375 -7.984375l-2.015625 -5.609375q-0.09375 -0.28125 -0.28125 -0.84375q-0.1875 -0.578125 -0.375 -1.1875q-0.1875 -0.625 -0.296875 -1.015625q-0.140625 0.53125 -0.3125 1.125q-0.15625 0.59375 -0.328125 1.109375q-0.15625 0.5 -0.265625 0.8125l-2.03125 5.609375l5.90625 0zm18.902115 7.984375l-10.6875 0l0 -19.03125l10.6875 0l0 2.296875l-8.015625 0l0 5.65625l7.53125 0l0 2.265625l-7.53125 0l0 6.515625l8.015625 0l0 2.296875zm15.025452 -5.109375q0 1.6875 -0.84375 2.890625q-0.84375 1.203125 -2.375 1.84375q-1.515625 0.640625 -3.609375 0.640625q-1.046875 0 -2.015625 -0.125q-0.953125 -0.109375 -1.78125 -0.3125q-0.8125 -0.203125 -1.46875 -0.515625l0 -2.53125q1.078125 0.453125 2.5 0.84375q1.421875 0.375 2.921875 0.375q1.3125 0 2.203125 -0.359375q0.90625 -0.359375 1.359375 -1.0q0.453125 -0.65625 0.453125 -1.578125q0 -0.90625 -0.453125 -1.515625q-0.4375 -0.625 -1.390625 -1.140625q-0.953125 -0.53125 -2.5 -1.109375q-1.078125 -0.390625 -1.96875 -0.890625q-0.890625 -0.5 -1.53125 -1.15625q-0.640625 -0.65625 -1.0 -1.53125q-0.34375 -0.875 -0.34375 -2.015625q0 -1.578125 0.765625 -2.703125q0.78125 -1.125 2.171875 -1.703125q1.390625 -0.59375 3.234375 -0.59375q1.5 0 2.8125 0.296875q1.3125 0.296875 2.5 0.8125l-0.859375 2.21875q-1.09375 -0.453125 -2.21875 -0.734375q-1.125 -0.296875 -2.3125 -0.296875q-1.109375 0 -1.875 0.328125q-0.765625 0.328125 -1.15625 0.921875q-0.390625 0.59375 -0.390625 1.421875q0 0.921875 0.40625 1.53125q0.421875 0.609375 1.3125 1.109375q0.90625 0.5 2.34375 1.046875q1.625 0.625 2.765625 1.328125q1.140625 0.703125 1.734375 1.703125q0.609375 0.984375 0.609375 2.5zm18.804077 -11.890625q-1.46875 0 -2.640625 0.515625q-1.15625 0.515625 -1.96875 1.5q-0.796875 0.984375 -1.234375 2.359375q-0.421875 1.375 -0.421875 3.109375q0 2.3125 0.671875 3.984375q0.6875 1.671875 2.0625 2.59375q1.390625 0.90625 3.484375 0.90625q1.25 0 2.375 -0.21875q1.140625 -0.234375 2.28125 -0.59375l0 2.28125q-1.09375 0.421875 -2.265625 0.625q-1.15625 0.203125 -2.71875 0.203125q-2.921875 0 -4.859375 -1.203125q-1.921875 -1.21875 -2.875 -3.40625q-0.953125 -2.203125 -0.953125 -5.1875q0 -2.15625 0.59375 -3.9375q0.609375 -1.796875 1.765625 -3.109375q1.15625 -1.3125 2.84375 -2.015625q1.6875 -0.703125 3.890625 -0.703125q1.421875 0 2.78125 0.3125q1.359375 0.296875 2.515625 0.84375l-1.0 2.21875q-0.9375 -0.421875 -2.03125 -0.75q-1.078125 -0.328125 -2.296875 -0.328125zm20.936127 9.796875q0 1.78125 -0.46875 3.171875q-0.46875 1.375 -1.34375 2.34375q-0.875 0.953125 -2.109375 1.453125q-1.234375 0.5 -2.796875 0.5q-1.453125 0 -2.671875 -0.5q-1.21875 -0.5 -2.109375 -1.453125q-0.890625 -0.96875 -1.375 -2.34375q-0.46875 -1.390625 -0.46875 -3.171875q0 -2.34375 0.796875 -4.0q0.8125 -1.671875 2.3125 -2.53125q1.515625 -0.875 3.59375 -0.875q1.96875 0 3.46875 0.875q1.5 0.875 2.328125 2.53125q0.84375 1.65625 0.84375 4.0zm-10.671875 0q0 1.65625 0.421875 2.859375q0.4375 1.1875 1.3125 1.828125q0.875 0.625 2.265625 0.625q1.375 0 2.25 -0.625q0.890625 -0.640625 1.296875 -1.828125q0.421875 -1.203125 0.421875 -2.859375q0 -1.640625 -0.421875 -2.8125q-0.40625 -1.171875 -1.296875 -1.796875q-0.875 -0.625 -2.28125 -0.625q-2.046875 0 -3.015625 1.375q-0.953125 1.375 -0.953125 3.859375zm21.418167 -7.40625q2.484375 0 3.8125 1.25q1.34375 1.25 1.34375 4.015625l0 9.34375l-2.59375 0l0 -9.0q0 -1.71875 -0.765625 -2.578125q-0.75 -0.859375 -2.3125 -0.859375q-2.21875 0 -3.109375 1.3125q-0.890625 1.3125 -0.890625 3.8125l0 7.3125l-2.625 0l0 -14.34375l2.078125 0l0.375 2.015625l0.140625 0q0.453125 -0.75 1.15625 -1.25q0.703125 -0.515625 1.5625 -0.765625q0.875 -0.265625 1.828125 -0.265625zm16.64714 0q2.484375 0 3.8125 1.25q1.34375 1.25 1.34375 4.015625l0 9.34375l-2.59375 0l0 -9.0q0 -1.71875 -0.765625 -2.578125q-0.75 -0.859375 -2.3125 -0.859375q-2.21875 0 -3.109375 1.3125q-0.890625 1.3125 -0.890625 3.8125l0 7.3125l-2.625 0l0 -14.34375l2.078125 0l0.375 2.015625l0.140625 0q0.453125 -0.75 1.15625 -1.25q0.703125 -0.515625 1.5625 -0.765625q0.875 -0.265625 1.828125 -0.265625zm15.1315155 0q1.875 0 3.21875 0.8125q1.34375 0.796875 2.046875 2.25q0.71875 1.453125 0.71875 3.4375l0 1.484375l-9.734375 0q0.046875 2.296875 1.1875 3.53125q1.15625 1.234375 3.21875 1.234375q1.359375 0 2.421875 -0.25q1.078125 -0.265625 2.21875 -0.78125l0 2.203125q-1.078125 0.5 -2.171875 0.71875q-1.078125 0.234375 -2.59375 0.234375q-2.078125 0 -3.65625 -0.828125q-1.5625 -0.84375 -2.4375 -2.46875q-0.859375 -1.640625 -0.859375 -4.03125q0 -2.375 0.78125 -4.0625q0.796875 -1.6875 2.234375 -2.578125q1.453125 -0.90625 3.40625 -0.90625zm-0.015625 2.03125q-1.578125 0 -2.546875 1.046875q-0.953125 1.03125 -1.125 2.953125l7.046875 0q-0.015625 -1.1875 -0.375 -2.078125q-0.359375 -0.90625 -1.09375 -1.40625q-0.734375 -0.515625 -1.90625 -0.515625zm15.319595 12.84375q-1.96875 0 -3.453125 -0.796875q-1.484375 -0.796875 -2.296875 -2.421875q-0.8125 -1.640625 -0.8125 -4.140625q0 -2.609375 0.859375 -4.265625q0.875 -1.65625 2.421875 -2.453125q1.546875 -0.796875 3.53125 -0.796875q1.171875 0 2.1875 0.234375q1.03125 0.234375 1.71875 0.59375l-0.78125 2.125q-0.71875 -0.296875 -1.5625 -0.515625q-0.84375 -0.21875 -1.59375 -0.21875q-1.390625 0 -2.296875 0.609375q-0.890625 0.59375 -1.359375 1.765625q-0.453125 1.171875 -0.453125 2.890625q0 1.671875 0.453125 2.828125q0.453125 1.140625 1.328125 1.75q0.875 0.59375 2.1875 0.59375q1.171875 0 2.09375 -0.25q0.921875 -0.265625 1.703125 -0.671875l0 2.296875q-0.75 0.421875 -1.671875 0.625q-0.90625 0.21875 -2.203125 0.21875zm12.237106 -2.125q0.5625 0 1.125 -0.09375q0.578125 -0.109375 1.0 -0.265625l0 2.015625q-0.4375 0.1875 -1.171875 0.328125q-0.734375 0.140625 -1.5 0.140625q-1.171875 0 -2.125 -0.40625q-0.953125 -0.40625 -1.53125 -1.375q-0.5625 -0.984375 -0.5625 -2.71875l0 -8.09375l-1.984375 0l0 -1.203125l2.078125 -0.96875l0.921875 -3.09375l1.625 0l0 3.25l4.140625 0l0 2.015625l-4.140625 0l0 8.0625q0 1.203125 0.578125 1.8125q0.578125 0.59375 1.546875 0.59375zm7.6471252 -12.484375l0 14.34375l-2.625 0l0 -14.34375l2.625 0zm-1.296875 -5.421875q0.625 0 1.078125 0.359375q0.453125 0.359375 0.453125 1.1875q0 0.8125 -0.453125 1.1875q-0.453125 0.375 -1.078125 0.375q-0.625 0 -1.0625 -0.375q-0.4375 -0.375 -0.4375 -1.1875q0 -0.828125 0.4375 -1.1875q0.4375 -0.359375 1.0625 -0.359375zm8.986816 19.765625l-5.453125 -14.34375l2.765625 0l3.0625 8.546875q0.296875 0.84375 0.59375 1.859375q0.296875 1.0 0.390625 1.640625l0.09375 0q0.140625 -0.65625 0.453125 -1.65625q0.3125 -1.0 0.59375 -1.84375l3.046875 -8.546875l2.78125 0l-5.46875 14.34375l-2.859375 0zm13.174286 -14.34375l0 14.34375l-2.6249847 0l0 -14.34375l2.6249847 0zm-1.2968597 -5.421875q0.62498474 0 1.0781097 0.359375q0.453125 0.359375 0.453125 1.1875q0 0.8125 -0.453125 1.1875q-0.453125 0.375 -1.0781097 0.375q-0.625 0 -1.0625 -0.375q-0.4375 -0.375 -0.4375 -1.1875q0 -0.828125 0.4375 -1.1875q0.4375 -0.359375 1.0625 -0.359375zm10.752426 17.90625q0.5625 0 1.125 -0.09375q0.578125 -0.109375 1.0 -0.265625l0 2.015625q-0.4375 0.1875 -1.171875 0.328125q-0.734375 0.140625 -1.5 0.140625q-1.171875 0 -2.125 -0.40625q-0.953125 -0.40625 -1.53125 -1.375q-0.5625 -0.984375 -0.5625 -2.71875l0 -8.09375l-1.984375 0l0 -1.203125l2.078125 -0.96875l0.921875 -3.09375l1.625 0l0 3.25l4.140625 0l0 2.015625l-4.140625 0l0 8.0625q0 1.203125 0.578125 1.8125q0.578125 0.59375 1.546875 0.59375zm2.8346252 -12.484375l2.8125 0l3.046875 8.265625q0.234375 0.640625 0.4375 1.25q0.203125 0.59375 0.34375 1.171875q0.15625 0.5625 0.25 1.109375l0.09375 0q0.15625 -0.671875 0.4375 -1.609375q0.296875 -0.953125 0.625 -1.9375l2.921875 -8.25l2.8125 0l-6.203125 16.375q-0.5 1.359375 -1.234375 2.34375q-0.71875 0.984375 -1.703125 1.515625q-0.984375 0.53125 -2.34375 0.53125q-0.625 0 -1.109375 -0.078125q-0.46875 -0.0625 -0.796875 -0.15625l0 -2.09375q0.28125 0.078125 0.6875 0.125q0.40625 0.046875 0.859375 0.046875q0.8125 0 1.40625 -0.328125q0.59375 -0.3125 1.015625 -0.90625q0.421875 -0.578125 0.71875 -1.359375l0.640625 -1.6875l-5.71875 -14.328125zm29.468475 14.34375l-2.671875 0l0 -16.71875l-5.78125 0l0 -2.3125l14.21875 0l0 2.3125l-5.765625 0l0 16.71875zm20.876984 -7.203125q0 1.78125 -0.46875 3.171875q-0.46875 1.375 -1.34375 2.34375q-0.875 0.953125 -2.109375 1.453125q-1.234375 0.5 -2.796875 0.5q-1.453125 0 -2.671875 -0.5q-1.21875 -0.5 -2.109375 -1.453125q-0.890625 -0.96875 -1.375 -2.34375q-0.46875 -1.390625 -0.46875 -3.171875q0 -2.34375 0.796875 -4.0q0.8125 -1.671875 2.3125 -2.53125q1.515625 -0.875 3.59375 -0.875q1.96875 0 3.46875 0.875q1.5 0.875 2.328125 2.53125q0.84375 1.65625 0.84375 4.0zm-10.671875 0q0 1.65625 0.421875 2.859375q0.4375 1.1875 1.3125 1.828125q0.875 0.625 2.265625 0.625q1.375 0 2.25 -0.625q0.890625 -0.640625 1.296875 -1.828125q0.421875 -1.203125 0.421875 -2.859375q0 -1.640625 -0.421875 -2.8125q-0.40625 -1.171875 -1.296875 -1.796875q-0.875 -0.625 -2.28125 -0.625q-2.046875 0 -3.015625 1.375q-0.953125 1.375 -0.953125 3.859375zm26.824432 0q0 1.78125 -0.46875 3.171875q-0.46875 1.375 -1.34375 2.34375q-0.875 0.953125 -2.109375 1.453125q-1.234375 0.5 -2.796875 0.5q-1.453125 0 -2.671875 -0.5q-1.21875 -0.5 -2.109375 -1.453125q-0.890625 -0.96875 -1.375 -2.34375q-0.46875 -1.390625 -0.46875 -3.171875q0 -2.34375 0.796875 -4.0q0.8125 -1.671875 2.3125 -2.53125q1.515625 -0.875 3.59375 -0.875q1.96875 0 3.46875 0.875q1.5 0.875 2.328125 2.53125q0.84375 1.65625 0.84375 4.0zm-10.671875 0q0 1.65625 0.421875 2.859375q0.4375 1.1875 1.3125 1.828125q0.875 0.625 2.265625 0.625q1.375 0 2.25 -0.625q0.890625 -0.640625 1.296875 -1.828125q0.421875 -1.203125 0.421875 -2.859375q0 -1.640625 -0.421875 -2.8125q-0.40625 -1.171875 -1.296875 -1.796875q-0.875 -0.625 -2.28125 -0.625q-2.046875 0 -3.015625 1.375q-0.953125 1.375 -0.953125 3.859375zm16.918152 7.203125l-2.640625 0l0 -20.25l2.640625 0l0 20.25z"
       fill-rule="nonzero"
       id="path29" />
    <path
       fill="#000000"
       fill-opacity="0.0"
       d="m18.461943 111.296585l36.220474 0.50393677"
       fill-rule="evenodd"
       id="path30" />
    <path
       stroke="#3c78d8"
       stroke-width="3.0"
       stroke-linejoin="round"
       stroke-linecap="butt"
       d="m18.461943 111.296585l18.222216 0.2535324"
       fill-rule="evenodd"
       id="path31" />
    <path
       fill="#3c78d8"
       stroke="#3c78d8"
       stroke-width="3.0"
       stroke-linecap="butt"
       d="m36.615223 116.50483l13.681908 -4.76532l-13.544037 -5.1441116z"
       fill-rule="evenodd"
       id="path32" />
    <path
       fill="#000000"
       fill-opacity="0.0"
       d="m340.5223 171.36482l28.094482 0"
       fill-rule="evenodd"
       id="path33" />
    <path
       stroke="#3c78d8"
       stroke-width="3.0"
       stroke-linejoin="round"
       stroke-linecap="butt"
       d="m340.5223 171.36482l10.094482 0"
       fill-rule="evenodd"
       id="path34" />
    <path
       fill="#3c78d8"
       stroke="#3c78d8"
       stroke-width="3.0"
       stroke-linecap="butt"
       d="m350.6168 176.32002l13.614288 -4.9552l-13.614288 -4.955185z"
       fill-rule="evenodd"
       id="path35" />
  </g>
</svg>
